<?xml version="1.0" standalone="no"?>
<!DOCTYPE svg PUBLIC "-//W3C//DTD SVG 20010904//EN"
 "http://www.w3.org/TR/2001/REC-SVG-20010904/DTD/svg10.dtd">
<svg version="1.0" xmlns="http://www.w3.org/2000/svg"
 width="512.000000pt" height="512.000000pt" viewBox="0 0 512.000000 512.000000"
 preserveAspectRatio="xMidYMid meet">

<g transform="translate(0.000000,512.000000) scale(0.100000,-0.100000)"
fill="#000000" stroke="none">
<path d="M893 3710 c-222 -115 -361 -212 -513 -356 -292 -278 -423 -617 -365
-947 42 -238 165 -451 382 -657 101 -95 106 -102 133 -179 45 -132 116 -245
223 -358 l60 -62 -5 -58 c-12 -130 34 -276 116 -369 71 -82 197 -146 312 -159
113 -13 252 28 340 101 l43 35 90 -26 c50 -14 153 -37 228 -51 76 -15 143 -28
149 -29 6 -2 27 -36 46 -77 43 -88 90 -144 160 -191 250 -164 570 -78 698 187
l39 81 132 23 c73 13 179 37 236 53 l105 29 36 -28 c56 -43 82 -57 144 -80
323 -120 663 145 634 494 l-5 71 35 34 c93 89 209 275 249 398 15 47 34 71
139 175 132 132 212 237 274 361 80 159 121 347 108 497 -30 364 -255 689
-663 959 -115 76 -363 205 -363 189 0 -6 9 -42 19 -80 41 -145 54 -273 48
-460 -5 -191 -28 -307 -87 -450 -206 -499 -752 -780 -1516 -780 -527 0 -949
137 -1236 400 -317 290 -434 773 -309 1273 15 59 24 107 21 107 -3 0 -65 -32
-137 -70z"/>
<path d="M2481 3347 c-48 -19 -108 -72 -133 -120 -31 -58 -31 -156 0 -213 81
-154 281 -177 394 -44 100 116 63 291 -75 361 -49 26 -140 33 -186 16z"/>
</g>
</svg>
